<svg xmlns="http://www.w3.org/2000/svg" xmlns:xlink="http://www.w3.org/1999/xlink" fill="none" viewBox="0 0 40 40"><g fill="#6d7278"><g clip-path="url(#A)"><path d="M20.813 13.406c-.207 0-.375.168-.375.375s.168.375.375.375a1.03 1.03 0 0 1 1.031 1.031c0 .207.168.375.375.375s.375-.168.375-.375c0-.982-.8-1.78-1.78-1.78zm0-1.406c-.207 0-.375.168-.375.375s.168.375.375.375a2.44 2.44 0 0 1 2.437 2.437c0 .207.168.375.375.375s.375-.168.375-.375A3.19 3.19 0 0 0 20.813 12zm0 3.562c.207 0 .375-.168.375-.375s-.168-.375-.375-.375-.375.168-.375.375.168.375.375.375zm-2.81.053h-4.418c-1.295 0-2.383 1.046-2.383 2.383v4.418c0 1.338 1.1 2.383 2.383 2.383h4.418c1.295 0 2.383-1.046 2.383-2.383v-4.418c0-1.338-1.1-2.383-2.383-2.383zm1.633 6.802c0 .917-.747 1.633-1.633 1.633h-4.418c-.885 0-1.633-.715-1.633-1.633V18c0-.918.747-1.633 1.633-1.633h4.418c.885 0 1.633.715 1.633 1.633v4.418z"/><use xlink:href="#B"/><path d="M17.6 17.623c-.207 0-.375.168-.375.375v1.607c0 .207.168.375.375.375s.375-.168.375-.375v-1.607c0-.207-.168-.375-.375-.375zm-3.2 4.352c0 .207.168.375.375.375h.807c.207 0 .375-.168.375-.375s-.168-.375-.375-.375h-.807c-.207 0-.375.168-.375.375z"/></g><path d="M18.812 13.045a.5.5 0 1 0 .375-.927l-.375.927zm4.98 3.552a.5.5 0 1 0-.916.401l.916-.4zM23.5 20a7.5 7.5 0 0 1-7.5 7.5v1a8.5 8.5 0 0 0 8.5-8.5h-1zM16 27.5A7.5 7.5 0 0 1 8.5 20h-1a8.5 8.5 0 0 0 8.5 8.5v-1zM8.5 20a7.5 7.5 0 0 1 7.5-7.5v-1A8.5 8.5 0 0 0 7.5 20h1zm7.5-7.5c.996 0 1.945.194 2.812.545l.375-.927A8.48 8.48 0 0 0 16 11.5v1zm6.875 4.498c.402.92.625 1.934.625 3.002h1c0-1.21-.253-2.36-.71-3.403l-.916.4z"/></g><defs><clipPath id="A"><path fill="#fff" d="M11.2 12H24v12.8H11.2z"/></clipPath><path id="B" d="M13.985 17.623c-.207 0-.375.168-.375.375v1.607c0 .207.168.375.375.375s.375-.168.375-.375v-1.607c0-.207-.168-.375-.375-.375z"/></defs></svg>