<svg xmlns="http://www.w3.org/2000/svg" viewBox="0 0 40 40" fill="none"><path d="M17 12h6a5 5 0 0 1 5 5v6a5 5 0 0 1-5 5h-6a5 5 0 0 1-5-5v-6a5 5 0 0 1 5-5zm6 14.5c1.93 0 3.5-1.57 3.5-3.5v-6c0-1.93-1.57-3.5-3.5-3.5h-6c-1.93 0-3.5 1.57-3.5 3.5v6c0 1.93 1.57 3.5 3.5 3.5h6zM16 20a4 4 0 1 1 8 0 4 4 0 1 1-8 0zm1.5 0c0 1.378 1.122 2.5 2.5 2.5s2.5-1.122 2.5-2.5-1.122-2.5-2.5-2.5-2.5 1.12-2.5 2.5z" fill-rule="evenodd" fill="#6d7278"/><path d="M24.3 16.233c.294 0 .533-.24.533-.533s-.24-.533-.533-.533-.533.24-.533.533.24.533.533.533z" fill="#6d7278"/></svg>