<svg xmlns="http://www.w3.org/2000/svg" width="698" height="595" fill="none"><style><![CDATA[.B{fill:#0063bc}.C{fill-rule:evenodd}.D{fill:#193877}.E{fill:#0a458c}.F{fill:#092f6b}.G{fill:#0081e2}]]></style><g class="C"><path d="M574.31 429.812l-72.1-61.634 66.786 3.236 5.314 58.398z" fill="#0052a3"/><path d="M581.836 243.183L506.095 218l50.764-14.296 24.977 39.49z" class="B"/><path d="M440.36 461.748l33.285-33.123-13.702 57.885-19.583-24.762z" class="G"/><path d="M594.406 454.978l-7.23-91.062 46.475-38.87-39.246 129.93z" class="E"/><path d="M486.7 489.315l94.893-34.634-72.073-61.66-22.82 96.295z" class="D"/><path d="M564.115 358.7l59.99-48.876-64.71-31.37 4.72 80.246z" class="F"/><path d="M594.433 524.38l-80.542-30.75 94.892-34.688-14.35 65.437z" class="G"/><path d="M358.362 667.393l50.387-73.044-57.21-.728 6.824 73.772z" class="D"/><path d="M472.028 548.656l1.7-63.468-54.135 37.898 52.436 25.57z" class="G"/><path d="M447.914 561.28l-73.88-58.02-19.178 61.958 93.058-3.938z" class="E"/><path d="M480.632 576.682l-62.794-4.532 37.952 31.964 24.842-27.432z" class="D"/><path d="M493.715 570.18l77.602-43.832-80.543-30.75 2.94 74.58z" class="B"/><path d="M594.433 524.38L547.85 699.464l-31.02-131.252 77.602-43.832z" class="F"/><path d="M650.483 314.042l49.2 133.788-90.9 11.113 41.7-144.9z" class="B"/><path d="M720.183 350.888l-6.015-111.104-117.146 46 123.16 65.114z" class="D"/><path d="M594.433 524.38l105.25-76.55-90.9 11.113-14.35 65.437z" class="F"/><path d="M650.483 314.042l69.7 36.846-20.5 96.942-49.2-133.788z" fill="#052149"/><path d="M612.83 558.852l86.854-111.022-105.25 76.55 18.396 34.472z" class="D"/><path d="M612.828 558.852L547.85 699.464l46.583-175.084 18.395 34.472z" class="E"/><path d="M538.895 301.23l.458 40.595-18.45-20.986 17.992-19.61z" class="B"/><path d="M468.387 620.486l48.444-52.274 31.02 131.252-79.463-78.978z" fill="#0052a3"/><path d="M643.498 573.445l-30.67-14.593-64.98 140.612 95.648-126.02z" class="B"/><path d="M643.498 573.445l56.186-125.615-86.855 111.022 30.67 14.593z" fill="#052149"/><path d="M643.498 573.445l57.67-27.297-1.483-98.318-56.186 125.615z" class="D"/><path d="M676.136 174.617l38.032 65.167 7.337-116.417-45.37 51.25z" class="B"/><path d="M721.505 123.367l-7.337 116.417 68.998-117.604-61.66 1.187z" class="E"/><path d="M681.557 129.328l-105.17 42.59 38.57 35.875 66.598-78.466z" class="F"/><path d="M564.088 185.082l-56.32-31.343-2.13 29.806 58.452 1.537z" class="D"/><path d="M577.952 280.244l23.63-48.552 93.516 2.563-117.145 45.99z" class="G"/><path d="M770.246 308.27l-56.078-68.486 68.998-117.604-12.92 186.1z" class="F"/></g><g class="B"><path d="M663.054 168.925l32.34 57.157-76.955-4.235 44.614-52.922z"/><path d="M720.183 350.888l-6.015-111.104 56.078 68.486-50.063 42.618z" class="C"/></g><g class="E C"><path d="M764.42 389.837l-64.736 57.993 20.5-96.942 44.236 38.95z"/><path d="M754.763 531.61l5.34-76.766-60.42-7.013 55.08 83.78z"/></g><path d="M701.167 546.148l-1.483-98.318 55.08 83.78-53.596 14.54z" class="C F"/><path d="M643.498 573.445L750.96 586.77l-49.793-40.622-57.67 27.297z" class="B C"/><path d="M643.498 573.445l22.82 97.967 84.643-84.642-107.462-13.325z" class="E"/><path d="M643.498 573.445l-95.648 126.02 118.468-28.052-22.82-97.967z" class="C G"/></svg>