<svg xmlns="http://www.w3.org/2000/svg" viewBox="0 0 40 40" fill="none"><path d="M0 0h40v40H0z"/><path d="M19.56 14.726c-.762.045-1.776-1.4-3.5-.712-1.64.657-1.77 1.9-3.554 7.706-.417 1.358-.88 2.38-.065 3.432.685.883 1.91 1.083 2.908.583.258-.13.452-.453.71-.842.2-.422 2.78-7.12 2.78-7.122.3-.6 1.46-.534 1.292.647 0 .387-1.8 4.706-1.8 4.92-.218 1.525 1.785 1.676 2.39.26.065-.065.323-.647.84-1.683l2.326-4.598c.258-.324.517-.518.71-.518.323 0 .517.26.452.712 0 .52-1.912 3.935-2.456 5.568-.272 1.364.436 2.58 1.615 3.237.366.244 2.59.66 3.296.13.734-.245.528-1.306-.065-1.424-.645-.323-.962-.05-1.8-.388-1.865-.748 2.31-6.923 2.07-8.87-.194-1.23-.84-1.813-2.133-1.878-.77 0-.853.35-1.227.31s-1.15-.93-2.26-.915-1.922 1.412-2.52 1.448z" fill="#6d7278"/></svg>