<svg xmlns="http://www.w3.org/2000/svg" viewBox="0 0 289 195" fill="none" opacity=".3"><path d="M133.54 120.155l-7.586-48.513 30.593 10.76 3.52 44.96-26.528-7.21z" fill="#092f6b"/><path d="M195.913 43.482l-39.365 38.922-30.592-10.76 69.957-28.16z" fill="#0081e2"/><path d="M170.427 152.63l76.538-2.296-111.35-14.734 34.81 17.03z" fill="#092f6b"/><path d="M246.965 150.333L135.616 135.6l-19.28-20.115 130.628 34.85z" fill="#0081e2"/><path d="M170.427 152.63l84.886 41.516-66.618-42.063-18.268.547z" fill="#0a458c"/><path d="M135.615 135.6L84.397 97.946l3.03-12.637 48.187 50.3z" fill="#193877"/><path d="M87.43 85.31l-19.863-5.566 16.832 18.203 3.03-12.637z" fill="#0a458c"/><path d="M84.397 97.946L20.31 50.825l47.255 28.92 16.832 18.203z" fill="#0081e2"/><path d="M183.12 96.517l-7.443 44.384-23.04-3.052-10.076-55.595 40.56 14.263z" fill="#0a458c"/><path d="M183.122 96.517l50.61-36.678-91.17 22.415 40.56 14.263z" fill="#193877"/></svg>