<svg xmlns="http://www.w3.org/2000/svg" viewBox="0 0 40 40" fill="none"><path d="M29.692 13.894a8.42 8.42 0 0 1-2.326.638c.837-.5 1.476-1.285 1.776-2.23-.78.465-1.642.794-2.56.977-.74-.79-1.797-1.277-2.95-1.277-2.235 0-4.034 1.814-4.034 4.038 0 .32.027.628.093.92-3.356-.164-6.326-1.772-8.32-4.223-.348.604-.553 1.296-.553 2.04 0 1.398.72 2.638 1.793 3.355-.65-.012-1.285-.2-1.824-.497v.044c0 1.962 1.4 3.59 3.235 3.967-.33.1-.687.133-1.06.133-.258 0-.52-.015-.764-.07.523 1.6 2.007 2.774 3.772 2.812a8.11 8.11 0 0 1-5.005 1.722c-.33 0-.65-.015-.966-.055C11.788 27.342 13.908 28 16.193 28c7.43 0 11.49-6.154 11.49-11.488a10.31 10.31 0 0 0-.015-.522c.8-.57 1.474-1.28 2.023-2.096z" fill="#6d7278"/></svg>