<svg xmlns="http://www.w3.org/2000/svg" viewBox="0 0 155 155" fill="none"><path d="M76.396 74.664c10.258 0 19.14-3.68 26.397-10.938S113.73 47.6 113.73 37.33s-3.68-19.136-10.937-26.396S86.652 0 76.396 0 57.257 3.68 50 10.936 39.063 27.075 39.063 37.33 42.743 56.47 50 63.728s16.14 10.936 26.396 10.936zM56.424 17.36c5.57-5.57 12.1-8.275 19.972-8.275S90.8 11.8 96.37 17.36s8.277 12.103 8.277 19.972-2.708 14.404-8.277 19.973-12.104 8.277-19.973 8.277-14.4-2.708-19.972-8.277-8.278-12.102-8.278-19.973 2.708-14.402 8.278-19.972z" fill="url(#A)"/><path d="M141.72 119.187c-.2-3.02-.633-6.315-1.256-9.794-.63-3.505-1.44-6.818-2.41-9.847-1.003-3.13-2.364-6.22-4.05-9.184-1.747-3.075-3.8-5.752-6.103-7.955-2.41-2.305-5.358-4.158-8.77-5.51-3.4-1.345-7.165-2.026-11.194-2.026-1.582 0-3.112.65-6.068 2.573l-6.32 4.075c-2.03 1.294-4.78 2.506-8.178 3.603-3.315 1.073-6.68 1.617-10.003 1.617s-6.686-.544-10.003-1.617c-3.394-1.096-6.146-2.308-8.173-3.602l-6.327-4.077c-2.953-1.924-4.483-2.573-6.065-2.573-4.03 0-7.795.682-11.193 2.028-3.408 1.35-6.36 3.202-8.77 5.5-2.304 2.204-4.357 4.88-6.102 7.954-1.683 2.962-3.045 6.052-4.048 9.185-.968 3.03-1.778 6.34-2.408 9.846-.624 3.475-1.046 6.77-1.256 9.798a132.61 132.61 0 0 0-.31 9.153c0 8.09 2.572 14.64 7.644 19.472 5.01 4.767 11.636 7.184 19.698 7.184H114.7c8.06 0 14.686-2.417 19.697-7.184 5.073-4.827 7.645-11.38 7.645-19.473-.001-3.124-.106-6.204-.313-9.156zm-13.595 22.048c-3.3 3.15-7.704 4.682-13.435 4.682H40.057c-5.732 0-10.126-1.532-13.435-4.68-3.246-3.1-4.824-7.308-4.824-12.892a123.37 123.37 0 0 1 .287-8.525c.187-2.7.57-5.668 1.135-8.82.56-3.114 1.27-6.036 2.118-8.68.812-2.537 1.92-5.048 3.295-7.468 1.312-2.306 2.82-4.284 4.485-5.88 1.557-1.49 3.52-2.712 5.834-3.627 2.14-.847 4.543-1.3 7.153-1.38.318.17.885.492 1.802 1.1l6.4 4.125c2.682 1.7 6.138 3.254 10.266 4.587 4.22 1.365 8.525 2.058 12.798 2.058s8.578-.693 12.796-2.056c4.132-1.335 7.586-2.878 10.272-4.59l6.394-4.122c.918-.597 1.484-.92 1.802-1.1 2.61.07 5.016.533 7.156 1.38 2.312.915 4.275 2.137 5.832 3.627 1.665 1.593 3.174 3.57 4.486 5.88 1.375 2.418 2.484 4.93 3.296 7.466.847 2.65 1.56 5.57 2.12 8.68.565 3.158.948 6.127 1.135 8.823v.002a122.61 122.61 0 0 1 .291 8.522c-.001 5.585-1.58 9.802-4.825 12.89z" fill="url(#B)"/><defs><linearGradient id="A" x1="3.1" y1="37.2" x2="156.723" y2="37.2" gradientUnits="userSpaceOnUse"><stop stop-color="#0b468d"/><stop offset="1" stop-color="#187bc0"/></linearGradient><linearGradient id="B" x1="-2.756" y1="115.044" x2="164.3" y2="115.044" gradientUnits="userSpaceOnUse"><stop stop-color="#0b468d"/><stop offset="1" stop-color="#187bc0"/></linearGradient></defs></svg>