<svg xmlns="http://www.w3.org/2000/svg" viewBox="0 0 40 40" fill="none"><path d="M30.226 22.134l2.757 2.773c.37.446.72.906.988 1.424.38.736.036 1.545-.624 1.59l-4.1-.002c-1.058.088-1.9-.338-2.61-1.06l-1.64-1.792c-.224-.244-.458-.474-.738-.656-.56-.363-1.046-.252-1.366.332-.326.594-.4 1.25-.432 1.913-.044.966-.336 1.22-1.306 1.264-2.073.098-4.04-.216-5.868-1.262-1.61-.922-2.86-2.223-3.948-3.697-2.117-2.87-3.74-6.02-5.196-9.262-.328-.73-.088-1.122.718-1.136a111.48 111.48 0 0 1 4.015-.002c.544.008.904.32 1.114.834.724 1.78 1.61 3.473 2.72 5.042.296.418.598.836 1.028 1.13.475.326.838.218 1.06-.312.142-.336.204-.698.236-1.058.106-1.238.12-2.473-.066-3.707-.114-.77-.548-1.268-1.316-1.414-.392-.074-.334-.22-.144-.444.33-.386.64-.626 1.258-.626H21.4c.73.144.892.472.992 1.206l.004 5.148c-.008.284.142 1.128.654 1.316.4.134.68-.194.925-.454 1.1-1.178 1.902-2.57 2.61-4.01.314-.634.584-1.292.846-1.95.194-.488.498-.728 1.048-.717l4.46.004c.132 0 .266.002.394.024.752.128.958.45.725 1.185-.366 1.152-1.077 2.11-1.773 3.075l-2.277 3.06c-.678.945-.624 1.422.218 2.243z" fill="#6d7278"/></svg>